<svg width="9" height="16" viewBox="0 0 9 16" fill="none" xmlns="http://www.w3.org/2000/svg">
<path d="M5.18106 3.81794C5.18106 3.98169 5.18106 4.51541 5.18106 5.27366H7.78806L7.50541 7.59763H5.18106C5.18106 11.1816 5.18106 15.9843 5.18106 15.9843H2.09587C2.09587 15.9843 2.09587 11.2452 2.09587 7.59763H0.488281V5.27366H2.09587C2.09587 4.35204 2.09587 3.69669 2.09587 3.51422C2.09587 2.64485 2.03037 2.23235 2.39978 1.55866C2.76937 0.885005 3.81187 -0.00543266 5.61497 0.0160048C7.4185 0.0382236 8.17872 0.211724 8.17872 0.211724L7.78806 2.6885C7.78806 2.6885 6.63641 2.38441 6.07112 2.49279C5.50659 2.60119 5.18106 2.94894 5.18106 3.81794Z" fill="white"/>
</svg>
